<?xml version="1.0" encoding="utf-8"?>
<!-- Generator: Adobe Illustrator 27.0.1, SVG Export Plug-In . SVG Version: 6.00 Build 0)  -->
<svg version="1.1" id="Icon_artwork" xmlns="http://www.w3.org/2000/svg" xmlns:xlink="http://www.w3.org/1999/xlink" x="0px"
	 y="0px" viewBox="0 0 708.3 562.3" style="enable-background:new 0 0 708.3 562.3;" xml:space="preserve">
<style type="text/css">
	.st0{fill:#FFFFFF;}
	.st1{fill:#E81C30;}
	.st2{fill:#EBEBEB;}
	.st3{clip-path:url(#SVGID_00000020370409258227217080000000768962092071893652_);}
</style>
<g>
	<ellipse class="st0" cx="354.1" cy="281.1" rx="344.1" ry="271.1"/>
	<path class="st1" d="M354.1,562.3c-94.2,0-182.8-29-249.5-81.6c-32.7-25.8-58.4-55.8-76.4-89.3C9.5,356.5,0,319.4,0,281.2
		s9.5-75.4,28.2-110.3c18-33.5,43.7-63.6,76.4-89.3C171.4,29,260,0,354.1,0s182.8,29,249.5,81.6c32.7,25.8,58.4,55.8,76.4,89.3
		c18.7,34.9,28.2,72,28.2,110.3s-9.5,75.4-28.2,110.3c-18,33.5-43.7,63.6-76.4,89.3C536.9,533.3,448.3,562.3,354.1,562.3z
		 M354.1,20.1c-184.2,0-334,117.1-334,261s149.8,261,334,261s334-117.1,334-261S538.3,20.1,354.1,20.1z"/>
</g>
<path class="st2" d="M591.6,199.1c-20.8-34.1-54-62.9-96-83.2c-42.9-20.8-92.6-31.5-143.9-31C301.6,85.3,253,96.4,211.2,117
	c-40.9,20.2-73.6,48.4-94.5,81.7c-1.6,2.6-0.8,6,1.7,7.6c0.9,0.6,1.9,0.9,3,0.8c1.8,0,3.6-0.9,4.6-2.6c19.8-31.5,50.9-58.4,90-77.6
	c40.4-19.9,87.3-30.6,135.8-31c99-0.9,189.5,41.9,230.4,109c1,1.7,2.9,2.6,4.8,2.6c1,0,1.9-0.3,2.8-0.8
	C592.4,205.1,593.2,201.7,591.6,199.1z"/>
<path class="st2" d="M589.8,350.5c-2.6-1.6-6-0.8-7.6,1.8c-19.7,31.6-50.8,58.5-89.9,77.8c-40.3,20-87.3,30.8-135.8,31.3
	c-99.1,1-189.6-41.6-230.6-108.6c-1.6-2.6-5-3.4-7.6-1.8c-2.6,1.6-3.4,5-1.8,7.6c20.9,34.1,54.1,62.8,96.2,83.1
	c42.9,20.7,92.7,31.3,143.9,30.8c50.1-0.5,98.7-11.7,140.5-32.4c40.9-20.2,73.5-48.5,94.4-81.8C593.2,355.5,592.4,352.1,589.8,350.5
	L589.8,350.5z"/>
<g>
	<g>
		<polygon points="242.2,203.9 232.7,253.3 232.6,253.3 222.5,203.9 203.4,203.9 193.5,253.3 193.4,253.3 183.9,203.9 162.3,203.9 
			180.6,283.5 202.4,283.5 212.6,234.7 212.7,234.7 223.1,283.5 244.6,283.5 263,203.9 		"/>
		<g>
			<defs>
				<rect id="SVGID_1_" x="163" y="202.5" width="382.3" height="82.4"/>
			</defs>
			<clipPath id="SVGID_00000175306161630170806420000007844846823887786167_">
				<use xlink:href="#SVGID_1_"  style="overflow:visible;"/>
			</clipPath>
			<g style="clip-path:url(#SVGID_00000175306161630170806420000007844846823887786167_);">
				<path d="M507.4,256.8v-2.1c0-7.7,3.3-12.7,8.1-17.1c0.9-0.8,1.9-1.6,2.8-2.3c3.2-2.6,6-4.9,6-8.6c0-4.2-2.8-6.6-7.2-6.6
					c-4,0-7.1,2.6-8.5,7.1l-0.2,0.6h-19.8c1.5-16.3,13.9-25.2,30.1-25.2c16.3,0,26.6,8.8,26.6,21.9c0,8.9-5,13.4-9.4,17.4
					c-5.3,4.9-7.9,8.6-8,12.9l0,2.1L507.4,256.8L507.4,256.8z"/>
				<rect x="483" y="265.4" class="st1" width="45" height="18.1"/>
				<path d="M452.9,283.5v-34.4c0-8.4-8.4-10.9-12.6-3.2c-1.5,2.7-2.1,6.5-2.1,11.8v25.8h-20.4v-79.6h20.4v34.8
					c6.8-14.4,22.8-16.2,30.7-7.5c2.9,3.2,4.4,7.8,4.4,13.6v38.7H452.9L452.9,283.5z"/>
				<path d="M302.9,283.5v-34.4c0-8.4-8.4-10.9-12.6-3.2c-1.5,2.7-2.1,6.5-2.1,11.8v25.8h-20.4v-79.6h20.4v34.8
					c6.8-14.4,22.8-16.2,30.7-7.5c2.9,3.2,4.4,7.8,4.4,13.6v38.7H302.9L302.9,283.5z"/>
				<rect x="331.2" y="227.3" width="20.4" height="56.2"/>
				<path d="M412.2,262.6c-0.9,12.6-10.4,22.3-25.3,22.3c-18,0-29.1-11.3-29.1-29.5s11.2-29.5,28.7-29.5c13.7,0,24.4,6.9,25.5,22.2
					h-17.7c-0.8-3.8-2.9-7.7-7.8-7.7c-7.8,0-9.1,9.6-9.1,15c0,6.6,1.8,15,9,15c3.6,0,6.4-2.9,7.8-7.7L412.2,262.6L412.2,262.6z"/>
				<path d="M341.4,223.5c-5.6,0-11.3-3.6-11.3-10.4s5.7-10.6,11.3-10.6s11.3,3.6,11.3,10.6S347,223.5,341.4,223.5"/>
			</g>
		</g>
	</g>
	<g>
		<path d="M152.5,350v-33.3h-13.2v-8.8h37.2v8.8h-13.3V350H152.5L152.5,350z"/>
		<path d="M199.1,328.2c-1-0.4-2.5-0.7-4-0.7c-3.8,0-6.9,2.5-6.9,7.9V350h-10.4v-31.9h9l1.2,7.2c1.3-5.4,5.5-8.8,11.6-7.8
			L199.1,328.2L199.1,328.2z"/>
		<path d="M223.7,344.2c-1.4,4.3-4.9,6.5-9.7,6.5c-5.4,0-10-3.4-10-10.3v-22.3h10.4v19.4c0,3.1,1.4,5,4.1,5c2.9,0,5-2.1,5-6.9v-17.5
			h10.4V350H225L223.7,344.2L223.7,344.2z"/>
		<path d="M246.2,340.1c0.4,2.3,2.6,3.9,5.2,3.9s4.4-1,4.4-3c0-5.5-17.2-0.6-17.2-12.9c0-7,6.1-10.7,13.5-10.7
			c7.4,0,12.3,3.3,13.2,9.3l-8.6,1c-0.2-2.2-1.8-3.6-4.5-3.6c-2.4,0-3.8,1.1-3.8,3c0,5.6,17.3,0.4,17.3,13.1
			c0,6.9-5.9,10.6-14.2,10.6c-6.9,0-12.5-2.8-13.9-8.7L246.2,340.1L246.2,340.1z"/>
		<path d="M292.5,348.1c-2.3,1.7-5.4,2.6-8.7,2.6c-6.7,0-11.4-3.3-11.4-10.8v-14.2h-4.1v-7.6h4.2v-6.7l10.4-1.3v8h8.2v7.6h-8.3v12.9
			c0,2.6,1.3,3.8,3.6,3.8c1.7,0,3.1-0.5,4.8-1.6L292.5,348.1L292.5,348.1z"/>
		<path d="M316.8,339l8.4,2.9c-2,6.2-7.7,8.9-13.9,8.9c-9.6,0-15.8-6.1-15.8-16.4s6-17,16-17c9.3,0,13.9,6.4,13.9,14.3
			c0,1.3-0.2,3.1-0.6,4.2h-19.3c0.1,4.5,2.5,7.2,6,7.2C314.1,343.1,315.9,341.8,316.8,339L316.8,339z M315.7,331
			c0.1-0.4,0.1-0.9,0.1-1.5c0-2.6-1.6-4.9-4.5-4.9c-3.2,0-5.4,2.4-5.7,6.3L315.7,331L315.7,331z"/>
		<path d="M352,344.2c-1.3,4.4-5,6.6-9.6,6.6c-7.1,0-12.8-5.9-12.8-16c0-11.1,5.4-17.4,13.4-17.4c4.5,0,7.6,2,8.8,4.9v-17.7h10.5
			V350h-9L352,344.2L352,344.2z M351.7,331.6c0-4.5-2.7-6.6-5.5-6.6c-3.8,0-6,3.1-6,9.5c0,5.4,2.3,8.3,5.9,8.3
			c3.1,0,5.7-2.4,5.7-7.4V331.6L351.7,331.6z"/>
		<path d="M389.8,350v-33.3h-13.2v-8.8h37.2v8.8h-13.3V350H389.8z"/>
		<path d="M437.6,328.2c-1-0.4-2.5-0.7-4-0.7c-3.8,0-6.9,2.5-6.9,7.9V350h-10.4v-31.9h9l1.2,7.2c1.3-5.4,5.5-8.8,11.6-7.8
			L437.6,328.2L437.6,328.2z"/>
		<path d="M467.4,340.8c0,1.6,0.9,2.3,2,2.3c0.7,0,1.3-0.2,1.8-0.7l0.4,6.7c-1.5,1-3.6,1.6-5.7,1.6c-2.9,0-5.2-1.1-6.5-2.9
			c-0.5-0.6-0.8-1.3-1.1-2.1c-1.3,3.1-5,5-9.2,5c-6,0-10.1-3.4-10.1-9.3c0-6.4,5.5-9.9,14.5-9.9c1.3,0,2.9,0.1,4,0.2v-3.2
			c0-2.3-1.2-3.7-3.6-3.7s-3.8,1.6-3.8,4.3l-9.5-1.3c0.6-6.4,5.7-10.3,13.7-10.3c9.1,0,13.2,4,13.2,10.7L467.4,340.8L467.4,340.8z
			 M457.4,336.8c-0.6-0.1-1.4-0.1-2.2-0.1c-4.2,0-6.3,1.3-6.3,3.9c0,2,1.4,3.3,3.8,3.3s4.7-1.4,4.7-5.2L457.4,336.8L457.4,336.8z"/>
		<path d="M496.6,344.2c-1.3,4.4-5,6.6-9.6,6.6c-7.1,0-12.8-5.9-12.8-16c0-11.1,5.4-17.4,13.4-17.4c4.5,0,7.6,2,8.8,4.9v-17.7h10.5
			V350h-9L496.6,344.2L496.6,344.2z M496.4,331.6c0-4.5-2.7-6.6-5.5-6.6c-3.8,0-6,3.1-6,9.5c0,5.4,2.3,8.3,5.9,8.3
			c3.1,0,5.7-2.4,5.7-7.4V331.6L496.4,331.6z"/>
		<path d="M533.6,339l8.4,2.9c-2,6.2-7.7,8.9-13.9,8.9c-9.6,0-15.8-6.1-15.8-16.4s6-17,16-17c9.3,0,13.9,6.4,13.9,14.3
			c0,1.3-0.2,3.1-0.6,4.2h-19.3c0.1,4.5,2.5,7.2,6,7.2C530.9,343.1,532.8,341.8,533.6,339L533.6,339z M532.6,331
			c0.1-0.4,0.1-0.9,0.1-1.5c0-2.6-1.6-4.9-4.5-4.9c-3.2,0-5.3,2.4-5.7,6.3L532.6,331L532.6,331z"/>
		<path d="M569.2,328.2c-1-0.4-2.5-0.7-4-0.7c-3.8,0-6.9,2.5-6.9,7.9V350h-10.4v-31.9h9l1.2,7.2c1.3-5.4,5.5-8.8,11.6-7.8
			L569.2,328.2L569.2,328.2z"/>
	</g>
</g>
</svg>
